<svg xmlns="http://www.w3.org/2000/svg" version="2.0" viewBox="0 0 300 300"><title>logo.svg</title><desc>Created using Figma 0.90</desc><g id="Canvas" transform="translate(-1638,-1844)"><g id="logo" style="mix-blend-mode:normal"><path fill="#f57c00" d="m1788 1886a108.02 108.02 0 0 0 -104.92 82.828 114.07 64.249 0 0 1 104.92 -39.053 114.07 64.249 0 0 1 104.96 39.261 108.02 108.02 0 0 0 -104.96 -83.037zm-104.96 133.01a108.02 108.02 0 0 0 104.96 83.037 108.02 108.02 0 0 0 104.92 -82.828 114.07 64.249 0 0 1 -104.92 39.053 114.07 64.249 0 0 1 -104.96 -39.261z" paint-order="fill markers stroke"/><circle cx="1699.5" cy="2110.8" r="22.627" fill="#9e9e9e" paint-order="fill markers stroke"/><circle cx="1684.3" cy="1892.6" r="16.617" fill="#616161" paint-order="fill markers stroke" style="mix-blend-mode:normal"/><circle cx="1879.8" cy="1877.4" r="21.213" fill="#757575" paint-order="fill markers stroke" style="mix-blend-mode:normal"/></g></g></svg>